<?xml version="1.0" standalone="no"?><!DOCTYPE svg PUBLIC "-//W3C//DTD SVG 1.1//EN" "http://www.w3.org/Graphics/SVG/1.1/DTD/svg11.dtd"><svg class="icon" width="200px" height="200.00px" viewBox="0 0 1024 1024" version="1.1" xmlns="http://www.w3.org/2000/svg"><path d="M480 800h64v128h-64z"  /><path d="M640 960H384c-17.6 0-32-14.4-32-32s14.4-32 32-32h256c17.6 0 32 14.4 32 32s-14.4 32-32 32zM512 64c-105.6 0-192 86.4-192 192v16h160c17.6 0 32 14.4 32 32s-14.4 32-32 32H320v96h160c17.6 0 32 14.4 32 32s-14.4 32-32 32H320v16c0 105.6 86.4 192 192 192s192-86.4 192-192V256c0-105.6-86.4-192-192-192z"  /><path d="M800 480c-17.673 0-32 14.327-32 32 0 140.8-115.2 256-256 256S256 652.8 256 512c0-17.673-14.327-32-32-32s-32 14.327-32 32c0 176 144 320 320 320s320-144 320-320c0-17.673-14.327-32-32-32z"  /></svg>