<?xml version="1.0" standalone="no"?><!DOCTYPE svg PUBLIC "-//W3C//DTD SVG 1.1//EN" "http://www.w3.org/Graphics/SVG/1.1/DTD/svg11.dtd"><svg class="icon" width="200px" height="200.00px" viewBox="0 0 1024 1024" version="1.1" xmlns="http://www.w3.org/2000/svg"><path d="M899.729695 470.846718c0.775666-9.406231 1.726318-18.811438 1.726318-28.41926 0-207.385281-174.362166-375.516536-389.456013-375.516536-215.08873 0-389.456013 168.130232-389.456013 375.516536 0 9.643638 0.945535 19.013029 1.726318 28.41926-34.059724 19.031449-57.360406 55.004755-57.360406 96.789417l0 166.902264c0 61.440327 49.821709 111.255897 111.274316 111.255897 0 0 111.375623 0.183172 111.274316 0 59.120492-2.62171 111.268176-51.466162 111.268176-111.255897L400.726707 567.637158c0-61.458747-49.815569-111.292736-111.268176-111.292736 0 0-104.131639 0-111.274316 0 0-194.441481 149.45387-333.822948 333.816808-333.822948s334.99975 138.190339 333.816808 333.822948c-0.022513 4.730745-111.268176 0-111.268176 0-61.457724 0-111.274316 49.833989-111.274316 111.292736l0 166.902264c0 59.789735 52.147684 108.634186 111.274316 111.255897-0.102331 0.183172 55.634088 0 55.634088 0l0 83.47825c0 15.328104 12.456706 27.813462 27.817556 27.813462 15.365966 0 27.817556-12.486382 27.817556-27.813462l0-83.47825c61.457724 0 111.274316-49.815569 111.274316-111.255897L957.093171 567.637158C957.090101 525.851473 933.789419 489.87919 899.729695 470.846718z" /></svg>