<?xml version="1.0" standalone="no"?><!DOCTYPE svg PUBLIC "-//W3C//DTD SVG 1.1//EN" "http://www.w3.org/Graphics/SVG/1.1/DTD/svg11.dtd"><svg class="icon" width="200px" height="200.00px" viewBox="0 0 1024 1024" version="1.1" xmlns="http://www.w3.org/2000/svg"><path d="M563.575144 812.643268c0 78.743412-60.430324 38.455847-60.430324 38.455847l-261.258259-219.748866-40.287565 0c-25.027 0-45.170782-20.753673-45.170782-46.391587l0-184.344518c0-25.63689 20.143783-45.779649 45.170782-45.779649l48.223305 0 253.322519-215.47554c0 0 60.430324-40.898479 60.430324 38.455847L563.575144 812.643268 563.575144 812.643268zM663.67291 627.021663c-8.513908 0-16.984836-3.51915-23.052019-10.412141-11.20418-12.725836-9.971096-32.124651 2.752694-43.327808 22.735817-20.018939 35.774785-48.607044 35.774785-78.435397 0-29.597085-12.869099-58.033741-35.30918-78.017888-12.661368-11.276834-13.784958-30.680766-2.508123-43.342134s30.68179-13.783934 43.342134-2.508123c35.507702 31.623231 55.873542 76.771501 55.873542 123.869169 0 47.461965-20.629853 92.846618-56.599066 124.516922C678.115853 624.499214 670.878009 627.021663 663.67291 627.021663zM686.502871 746.240929c-12.114922 0-23.594371-7.219425-28.443819-19.130709-6.393617-15.703657 1.153266-33.616632 16.856923-40.009226 79.480192-32.358989 130.835837-107.639532 130.835837-191.783954 0-84.557838-51.702546-159.977551-131.719974-192.142112-15.731286-6.323009-23.357987-24.201192-17.033955-39.932478s24.201192-23.356964 39.932478-17.033955c49.671283 19.965727 92.00853 53.583382 122.434493 97.221252 31.260981 44.833091 47.784306 97.355305 47.784306 151.888316 0 54.320163-16.404622 106.671485-47.441499 151.395082-30.201859 43.521213-72.263837 77.152171-121.640408 97.253998C694.277952 745.510288 690.357666 746.240929 686.502871 746.240929z" /></svg>